# xmcd CD database file
#
# Track frame offsets:
#	150
#	12060
#	27270
#	38502
#	54552
#	67642
#	77365
#	90197
#	106367
#	117427
#	131252
#	140677
#	152580
#	168060
#	179785
#	189895
#	203432
#	222790
#	241580
#	256212
#	266817
#
# Disc length: 3704 seconds
#
# Revision: 0
# Processed by: cddbd v1.5PL3 Copyright (c) Steve Scherf et al.
# Submitted via: CDex 1.50beta8
#
DISCID=fc0e7615
DTITLE=Charlie Parker - Charlie Parker On Savoy Years Complete Edition [CD3]
DYEAR=1986
DGENRE=Jazz
TTITLE0=Barbados (#1)
TTITLE1=Barbados (#2&3)
TTITLE2=Barbados (#4)
TTITLE3=Ah-Leu Cha (#1&2)
TTITLE4=Constellation (#1&2)
TTITLE5=Constellation (#3)
TTITLE6=Constellation (#4&5)
TTITLE7=Parker's Mood (#1&2)
TTITLE8=Parker's Mood (#3&4)
TTITLE9=Parker's Mood (#5)
TTITLE10=Perhaps (#1)
TTITLE11=Perhaps (#2&3)
TTITLE12=Perhaps (#4,5&6)
TTITLE13=Perhaps (#7)
TTITLE14=Marmaduke (#1,2&3)
TTITLE15=Marmaduke (#4&5)
TTITLE16=Marmaduke (#6,7,8&9)
TTITLE17=Marmaduke (#10,11&12)
TTITLE18=Steeplechase (#1&2)
TTITLE19=Merry-Go-Round (#1)
TTITLE20=Merry-Go-Round (#2)
EXTD=YEAR: 1986
EXTT0=
EXTT1=
EXTT2=
EXTT3=
EXTT4=
EXTT5=
EXTT6=
EXTT7=
EXTT8=
EXTT9=
EXTT10=
EXTT11=
EXTT12=
EXTT13=
EXTT14=
EXTT15=
EXTT16=
EXTT17=
EXTT18=
EXTT19=
EXTT20=
PLAYORDER=
